<?xml version="1.0" encoding="UTF-8" standalone="no"?>
<!-- Created with Inkscape (http://www.inkscape.org/) -->

<svg
   xmlns:dc="http://purl.org/dc/elements/1.1/"
   xmlns:cc="http://creativecommons.org/ns#"
   xmlns:rdf="http://www.w3.org/1999/02/22-rdf-syntax-ns#"
   xmlns:svg="http://www.w3.org/2000/svg"
   xmlns="http://www.w3.org/2000/svg"
   xmlns:sodipodi="http://sodipodi.sourceforge.net/DTD/sodipodi-0.dtd"
   xmlns:inkscape="http://www.inkscape.org/namespaces/inkscape"
   version="1.1"
   id="svg3804"
   width="49.279999"
   height="107.84"
   viewBox="0 0 49.279999 107.84"
   sodipodi:docname="camiconp.svg"
   inkscape:version="0.92pre3 r">
  <metadata
     id="metadata3810">
    <rdf:RDF>
      <cc:Work
         rdf:about="">
        <dc:format>image/svg+xml</dc:format>
        <dc:type
           rdf:resource="http://purl.org/dc/dcmitype/StillImage" />
        <dc:title></dc:title>
      </cc:Work>
    </rdf:RDF>
  </metadata>
  <defs
     id="defs3808" />
  <sodipodi:namedview
     pagecolor="#ffffff"
     bordercolor="#666666"
     borderopacity="1"
     objecttolerance="10"
     gridtolerance="10"
     guidetolerance="10"
     inkscape:pageopacity="0"
     inkscape:pageshadow="2"
     inkscape:window-width="2160"
     inkscape:window-height="1245"
     id="namedview3806"
     showgrid="false"
     inkscape:zoom="1"
     inkscape:cx="92.808091"
     inkscape:cy="6.3807611"
     inkscape:window-x="0"
     inkscape:window-y="55"
     inkscape:window-maximized="1"
     inkscape:current-layer="svg3804" />
  <path
     style="fill:#000000;stroke-width:0.31999999"
     d="m 23.154215,104.96422 c -5.39732,-0.42012 -9.718965,-2.48998 -13.4920373,-6.462056 -3.659477,-3.852477 -5.823277,-9.141008 -4.942646,-12.080292 0.517359,-1.726793 1.426918,-1.922889 3.718548,-0.801699 0.965874,0.472557 1.7561353,0.969491 1.7561353,1.104295 0,0.964752 5.217923,1.356617 7.175115,0.538851 1.051288,-0.439258 1.086454,-0.517216 1.623869,-3.6 0.302121,-1.733063 0.90299,-5.006775 1.335265,-7.274919 0.554938,-2.91176 0.685988,-4.223865 0.445852,-4.464 -0.530247,-0.530246 -0.401573,-1.647644 0.291146,-2.528294 0.551647,-0.701306 0.636068,-1.342074 0.669482,-5.081414 0.02103,-2.353402 0.115544,-4.404004 0.210034,-4.556893 0.09449,-0.152887 0.146884,-3.177671 0.116429,-6.721741 -0.05098,-5.933107 -0.103981,-6.481798 -0.668747,-6.92376 -0.871565,-0.682048 -1.598445,-2.621555 -1.598445,-4.265066 0,-1.018339 0.242461,-1.748556 0.88,-2.650278 l 0.88,-1.244656 0.03373,-13.28 c 0.03345,-13.167533 0.245956,-18.200705 0.814033,-19.2799997 0.349396,-0.6638198 2.12459,-0.7474013 4.290531,-0.2020112 1.103237,0.2777984 1.429971,0.510761 1.458614,1.04 0.0203,0.3751062 0.0563,0.8980112 0.08,1.1620112 0.0237,0.264 -0.06033,1.056 -0.186735,1.7600003 -0.126402,0.7039997 -0.453341,5.3119994 -0.726529,10.2399994 -0.273188,4.928 -0.629157,9.752 -0.791042,10.72 -0.161885,0.968 -0.455937,3.067146 -0.653449,4.664771 l -0.359114,2.904771 0.920337,0.985223 c 2.219925,2.376438 2.192664,7.221027 -0.04542,8.071945 -0.682992,0.259674 -0.749106,0.519744 -0.944673,3.716032 -0.115656,1.89025 -0.210284,6.793351 -0.210284,10.89578 0,7.116688 0.02919,7.474585 0.636222,7.799456 0.799827,0.428054 1.126587,1.659888 0.667736,2.517257 -0.286933,0.536141 0.02009,1.687187 1.693724,6.349805 1.124303,3.132227 2.152126,6.05496 2.284051,6.49496 0.131926,0.44 0.525095,1.570013 0.873709,2.511139 l 0.633842,1.711139 1.447059,-0.217001 c 1.857283,-0.278515 2.820809,-0.705719 4.403657,-1.952467 2.283533,-1.798653 3.225674,-2.071895 4.749658,-1.377524 1.11055,0.506004 1.517603,1.64545 1.457977,4.081293 -0.105427,4.307098 -2.64496,10.116589 -5.604838,12.821753 -2.495174,2.28045 -4.536985,2.97701 -8.922797,3.044 -1.936,0.0296 -4.816,-0.0471 -6.399999,-0.17041 z m 11.561814,-1.62362 c 3.752483,-1.38437 7.430332,-7.27051 8.127974,-13.008251 0.393482,-3.236185 0.263478,-3.690333 -1.21759,-4.253433 -0.896215,-0.34074 -1.656023,0.0022 -3.33897,1.506777 -2.076995,1.856941 -6.032579,2.499213 -9.453229,1.534928 -0.682782,-0.192477 -0.719774,-0.114198 -0.71563,1.514355 0.0069,2.695824 0.213495,3.161748 1.305372,2.943373 0.589292,-0.117859 1.214423,0.0065 1.729765,0.344199 1.012093,0.663148 3.680493,4.29591 3.680493,5.010624 0,0.874644 -1.218736,2.154828 -2.271523,2.386058 -0.693076,0.15223 -1.076718,0.48282 -1.298462,1.11892 -0.173104,0.49657 -0.520673,0.98188 -0.772375,1.07846 -0.251702,0.0966 -0.45764,0.30645 -0.45764,0.46635 0,0.43386 2.809434,0.0484 4.681815,-0.64236 z m 1.238185,-7.700056 c -1.145824,-0.40728 -3.251123,-2.006883 -3.669008,-2.787705 -0.163974,-0.306387 -0.21766,-0.864803 -0.119302,-1.240922 0.185277,-0.708496 1.079853,-1.003353 3.529078,-1.163203 0.670579,-0.04376 2.263232,-0.194042 3.539232,-0.333946 1.885424,-0.206726 2.326634,-0.170838 2.355421,0.191578 0.212928,2.680762 -2.024256,5.791728 -4.09953,5.700688 -0.316739,-0.01389 -1.007891,-0.178816 -1.535891,-0.36649 z m 3.264231,-1.608246 c 0.897539,-0.985418 1.44495,-2.109178 1.211462,-2.486966 -0.215267,-0.348314 -6.54775,-0.06259 -6.966182,0.314316 -0.482087,0.43424 0.137501,1.210967 1.627712,2.040525 1.881484,1.047373 3.253376,1.091293 4.127008,0.132125 z m -11.022304,9.599812 c 1.325811,-0.45663 2.158073,-1.71233 2.158073,-3.25605 0,-1.044758 -0.343098,-1.873292 -1.6,-3.863762 l -1.6,-2.533814 v -3.545181 c 0,-3.440343 -0.02735,-3.577943 -0.924926,-4.653091 -0.807644,-0.967431 -1.110418,-1.107914 -2.387786,-1.107914 -1.312666,0 -1.620177,0.154547 -2.995074,1.505245 -2.078341,2.04176 -3.311681,2.497334 -6.83521,2.524816 -2.692528,0.02099 -3.000371,-0.04387 -4.1934713,-0.883699 -3.669932,-2.583274 -4.246971,-2.50921 -4.030424,0.517321 0.258665,3.615184 2.461198,7.546304 6.1523633,10.980841 1.68827,1.570908 5.86915,3.651528 8.494529,4.227328 2.31631,0.50802 6.407701,0.55438 7.761926,0.088 z m -7.697133,-2.1754 c -1.30462,-0.52353 -2.903637,-1.931834 -3.006307,-2.647748 -0.07006,-0.488504 0.426185,-1.238754 1.660802,-2.510907 0.968391,-0.997837 2.079566,-2.185837 2.469277,-2.64 0.822212,-0.958199 1.137587,-1.013891 1.828577,-0.322899 0.990386,0.990384 0.385715,6.920334 -0.805264,7.897154 -0.758797,0.62235 -1.073464,0.65524 -2.147085,0.2244 z m 1.526752,-1.41422 c 0.43512,-0.524284 1.17718,-5.188134 0.873756,-5.491558 -0.287294,-0.287293 -4.433062,4.025203 -4.212563,4.38198 0.186019,0.30098 2.357353,1.537728 2.748079,1.565248 0.11045,0.008 0.376277,-0.19727 0.590728,-0.45567 z M 11.428822,95.568164 c -1.274608,-0.866119 -1.5546083,-1.366528 -1.5546083,-2.778365 0,-1.463111 1.3998953,-1.901559 5.7464803,-1.799808 3.062612,0.07169 3.601257,0.167587 4.177219,0.743657 0.895514,0.895684 0.592751,1.492922 -1.441223,2.842996 -3.081374,2.045299 -4.977687,2.3167 -6.927868,0.99152 z m 5.189563,-1.375866 c 1.293392,-0.66 2.397826,-1.358275 2.4543,-1.551725 0.06588,-0.225683 -0.85388,-0.419229 -2.566694,-0.540102 -2.658434,-0.18761 -4.829766,0.08182 -5.420546,0.672595 -0.687642,0.687645 1.238085,2.571008 2.665045,2.606419 0.283951,0.007 1.574504,-0.527187 2.867895,-1.187187 z m 6.449097,-4.12752 c -0.487654,-0.204182 -1.353267,-1.80112 -1.353267,-2.496589 0,-0.762141 1.187349,-1.775891 2.08,-1.775891 1.139574,0 2.079999,1.067392 2.079999,2.360819 0,0.594448 -0.180805,1.230871 -0.40179,1.414272 -0.521534,0.432835 -1.885425,0.714915 -2.404942,0.497389 z m 1.786151,-1.930829 c 0.104818,-0.736269 -0.963482,-1.5776 -1.546032,-1.217565 -0.361639,0.223508 -0.422388,1.540247 -0.08656,1.87608 0.463873,0.463872 1.534266,0.03212 1.632587,-0.658515 z m 8.700581,10.907793 c 0,-0.662382 -1.715636,-3.122241 -2.739101,-3.927297 -0.45196,-0.355513 -1.017488,-0.571273 -1.25673,-0.479469 -0.327835,0.125805 -0.16529,0.614055 0.659874,1.982122 0.602171,0.998358 1.182345,2.279014 1.289276,2.845908 0.193021,1.023294 0.201083,1.027264 1.12055,0.551784 0.509373,-0.263414 0.926131,-0.701288 0.926131,-0.973048 z m -4.448596,-15.21321 c -0.881538,-2.52793 -2.038391,-5.820234 -2.570786,-7.316234 l -0.96799,-2.72 -0.0063,5.003197 c -0.0063,4.991088 -0.0044,5.00447 0.796329,5.529107 0.441453,0.289251 1.11329,1.186787 1.492971,1.994525 0.469451,0.998713 1.00614,1.601472 1.677358,1.883849 0.542866,0.228378 1.030723,0.371709 1.084128,0.318512 0.05341,-0.0532 -0.624158,-2.165027 -1.505696,-4.692956 z m -7.133893,0.04377 c 0.283514,0 0.374036,-1.469792 0.349821,-5.68 -0.03661,-6.365674 -0.142953,-6.287635 -1.417194,1.04 -0.459084,2.64 -0.916196,5.16 -1.015804,5.6 l -0.181107,0.8 0.940897,-0.88 c 0.517493,-0.484 1.113017,-0.88 1.323387,-0.88 z m 2.622489,-5.76 c 0,-5.226666 -0.0251,-5.44 -0.639999,-5.44 -0.605482,0 -0.64,0.213334 -0.64,3.955338 0,4.854502 0.252167,6.924662 0.843495,6.924662 0.351555,0 0.436504,-1.058698 0.436504,-5.44 z m 0.777143,-6.902858 c 0.983396,-0.983395 0.406718,-1.417142 -1.884132,-1.417142 -1.718092,0 -2.572578,0.777917 -1.61977,1.474627 0.819538,0.599261 2.880976,0.565443 3.503902,-0.05748 z M 24.264579,58.779499 c 0.0049,-5.52904 0.08931,-10.262474 0.187645,-10.518739 0.09834,-0.256266 -0.07222,-0.716954 -0.37902,-1.023754 -0.530422,-0.530422 -0.569424,-0.526442 -0.794158,0.08107 -0.18312,0.495021 -0.48061,20.213642 -0.320959,21.274221 0.01987,0.132 0.319968,0.24 0.666885,0.24 0.614104,0 0.630992,-0.265427 0.639607,-10.052803 z m 2.146939,-13.597187 c 0.996367,-1.346807 0.717147,-4.494749 -0.496069,-5.592692 -0.572507,-0.518112 -0.608932,-0.505251 -0.756586,0.267149 -0.08934,0.467367 0.02944,0.96464 0.280115,1.172682 0.848118,0.703878 0.262904,3.071587 -0.787621,3.18663 -0.119428,0.01309 -0.541926,0.08429 -0.938885,0.158259 -0.445013,0.08292 -0.978575,-0.122355 -1.391595,-0.535376 -0.54534,-0.54534 -0.634349,-0.91678 -0.478848,-1.998259 0.234871,-1.633465 -0.198814,-2.55159 -0.733419,-1.552672 -0.888478,1.660138 0.165063,4.854541 1.797049,5.448765 1.125636,0.409856 3.01331,0.111299 3.505859,-0.554486 z m -1.657304,-2.75001 c 0,-0.429434 -0.249031,-0.675235 -0.756907,-0.747091 -0.922518,-0.130525 -1.478424,0.360742 -1.207402,1.067011 0.301974,0.786934 1.964309,0.516195 1.964309,-0.31992 z m 0.04626,-7.36 c 0.898005,-6.238508 1.070285,-8.292213 1.570373,-18.72 0.09707,-2.024 0.311945,-4.544 0.47751,-5.6 0.165564,-1.0559997 0.302115,-2.445913 0.303444,-3.0886957 0.0021,-1.0240525 -0.122307,-1.212175 -1.005334,-1.52 -0.554267,-0.1932173 -1.328635,-0.351304 -1.720822,-0.351304 -1.591417,0 -1.583745,-0.078187 -1.701572,17.3396627 -0.06058,8.954925 -0.02501,16.503521 0.07903,16.77466 0.104045,0.271136 0.430191,0.446336 0.724768,0.389328 0.435694,-0.08432 0.673064,-1.058656 1.272596,-5.223651 z"
     id="path3814"
     inkscape:connector-curvature="0"
     inkscape:transform-center-x="74.939661"
     inkscape:transform-center-y="-8.2250847" />
  <ellipse
     style="fill:#ff0000;fill-rule:evenodd;stroke:none;stroke-width:2.049124px;stroke-linecap:butt;stroke-linejoin:miter;stroke-opacity:1"
     id="path3816"
     cx="32.272835"
     cy="91.624367"
     rx="16.64855"
     ry="16.024002" />
  <text
     xml:space="preserve"
     style="font-style:normal;font-variant:normal;font-weight:normal;font-stretch:normal;font-size:24px;line-height:25px;font-family:sans-serif;-inkscape-font-specification:'sans-serif, Normal';font-variant-ligatures:normal;font-variant-caps:normal;font-variant-numeric:normal;font-feature-settings:normal;text-align:start;letter-spacing:0px;word-spacing:0px;writing-mode:lr-tb;text-anchor:start;fill:#000000;fill-opacity:1;stroke:none;stroke-width:1px;stroke-linecap:butt;stroke-linejoin:miter;stroke-opacity:1"
     x="24.740646"
     y="100.86322"
     id="badge"
     inkscape:label="#text4627"><tspan
       sodipodi:role="line"
       id="tspan4625"
       x="24.740646"
       y="100.86322">1</tspan></text>
</svg>
